<?xml version="1.0" encoding="utf-8"?>
<!-- Generator: Adobe Illustrator 16.0.0, SVG Export Plug-In . SVG Version: 6.00 Build 0)  -->
<!DOCTYPE svg PUBLIC "-//W3C//DTD SVG 1.1//EN" "http://www.w3.org/Graphics/SVG/1.1/DTD/svg11.dtd">
<svg version="1.1" id="Layer_1" xmlns="http://www.w3.org/2000/svg" xmlns:xlink="http://www.w3.org/1999/xlink" x="0px" y="0px"
	 width="1200px" height="1200px" viewBox="0 0 1200 1200" enable-background="new 0 0 1200 1200" xml:space="preserve">
<g>
	<path fill="#F35045" d="M745.749,959.375c8.984,12.979,14.474,11.98,21.459,8.984s366.365-124.285,377.344-128.274
		c10.979-3.993,7.489-7.488,3.998-12.982c-3.495-5.488-123.288-168.204-129.28-177.688c-5.987-9.483-8.983-7.488-18.468-4.492
		l-380.96,99.129C619.842,744.051,736.765,946.393,745.749,959.375z M1175,793.681v-190.46
		c-42.859,11.419-97.071,25.857-118.473,31.549C1088.813,677.967,1139.287,745.569,1175,793.681z M1056.159,400.192
		c-5.871,1.334-135.875,24.829-143.885,25.893c-8.005,1.069-5.337,5.606-2.135,10.144l114.402,156.971
		c0,0,139.883-34.702,148.427-36.571c0.691-0.153,1.37-0.313,2.03-0.479v-20.786c-25.426-32.24-94.695-120.022-100.684-128.226
		C1067.111,397.259,1062.035,398.862,1056.159,400.192L1056.159,400.192z"/>
	<path fill="#F35045" d="M238.181,153.629c28.153-1.28,30.723,5.125,43.089,23.467l310.726,519.485l390.703-93.595
		c-21.647-30.687-119.919-170.012-129.42-183.309c-10.673-14.949,0.27-21.891,17.623-24.823c17.349-2.938,166.84-28.031,179.65-29.9
		c12.816-1.869,22.965-6.406,43.781,18.688c10.655,12.839,46.772,57.813,80.666,99.974V240.625
		c0-59.396-21.091-110.185-63.265-152.361C1069.561,46.091,1018.771,25,959.375,25h-718.75c-59.396,0-110.186,21.091-152.361,63.264
		c-24.189,24.199-41.408,51.229-51.719,81.088c70.43-5.785,181.938-14.823,201.641-15.723H238.181L238.181,153.629z"/>
	<path fill="#F35045" d="M780.985,1029.291c-32.945,9.982-47.721,14.938-69.181-15.013
		c-16.072-22.431-102.992-178.982-145.608-256.158c-80.657,21.123-228.267,59.647-270.834,69.876
		c-41.544,9.982-59.288-14.927-66.111-30.277C224.467,786.948,102.666,524.343,25,355.85v603.525
		c0,59.4,21.091,110.18,63.264,152.361c42.176,42.173,92.965,63.264,152.361,63.264h718.75c59.396,0,110.186-21.091,152.361-63.264
		c42.173-42.183,63.264-92.961,63.264-152.361v-70.892C1086.773,920.756,803.182,1022.566,780.985,1029.291z"/>
	<path fill="#F35045" d="M296.382,767.505c11.681-2.673,230.508-55.043,235.181-56.045c4.672-1.002,7.673-3.67,2.668-12.34
		c-5.006-8.67-291.696-503.529-291.696-503.529c-2.646-4.542-1.892-6.056-9.083-5.678c-6.411,0.341-168.628,14.815-206.184,17.951
		c-1.107,7.94-1.8,15.935-2.07,23.948c38.125,78.052,256.949,529.346,258.175,533.021
		C284.707,768.839,284.707,770.173,296.382,767.505L296.382,767.505z"/>
</g>
</svg>
